<svg height="48" width="48" xmlns="http://www.w3.org/2000/svg" xmlns:xlink="http://www.w3.org/1999/xlink"><linearGradient id="a" gradientUnits="userSpaceOnUse" x1="24.635435" x2="24.635435" y1="7.202693" y2="12.380689"><stop offset="0" stop-color="#bfbcb3"/><stop offset="1" stop-color="#9c988a"/></linearGradient><filter id="b" height="2.4743967" width="1.1706421" x="-.08532106" y="-.73719835"><feGaussianBlur stdDeviation=".38394476"/></filter><filter id="c" height="1.6375035" width="1.1813331" x="-.09066653" y="-.31875174"><feGaussianBlur stdDeviation=".79295562"/></filter><linearGradient id="d" gradientUnits="userSpaceOnUse" x1="25.5" x2="26" y1="-13.625" y2="-39.125"><stop offset="0" stop-color="#e2b369"/><stop offset="1" stop-color="#c79b55"/></linearGradient><linearGradient id="e" gradientUnits="userSpaceOnUse" x1="24.499998" x2="24.499998" y1="-38.500011" y2="-1.6250113"><stop offset="0" stop-color="#fff"/><stop offset="1" stop-color="#fff" stop-opacity="0"/></linearGradient><filter id="f" height="1.9040724" width="1.1673017" x="-.08365083" y="-.4520362"><feGaussianBlur stdDeviation="1.4691176"/></filter><linearGradient id="g" gradientTransform="matrix(.97161 0 0 1.28333 -40.4781 -6.13105)" gradientUnits="userSpaceOnUse" x1="37.926636" x2="5.4959755" y1="37.668934" y2="10.982666"><stop offset="0" stop-color="#fff"/><stop offset="1" stop-color="#ddd"/></linearGradient><rect display="block" filter="url(#f)" height="6.5" opacity=".35294118" overflow="visible" rx="4.4858322" ry="7.272984" transform="matrix(.724503 0 0 .446859 6.17169 23.2804)" width="35.125" x="19.514534" y="38.438263"/><rect display="block" filter="url(#f)" height="6.5" opacity=".41764706" overflow="visible" rx="3.2499998" ry="5.28125" transform="matrix(1 0 0 .615385 0 15.7981)" width="35.125" x="6.8749995" y="35.875"/><rect display="block" fill="url(#d)" height="31.999998" overflow="visible" rx="2.7499998" ry="2.75" stroke="#8f5902" transform="scale(1 -1)" width="29.999996" x="9.5" y="-40.5"/><path d="m16.722015 14.506832l15.632463 0c .972272.044194 1.026805-1.889084 1.026805-1.889084l-2.88421-2.310477.009089-.7545235c0 0-12.01513-.0205498-12.01513-.0205498l0 .8902013-2.600867 2.242637c0 0-.052033 1.797602.83185 1.841796z" display="block" filter="url(#c)" opacity=".44117647" overflow="visible" transform="matrix(1.05025 0 0 1.05025 -1.23787 -1.66647)"/><rect height="29.578182" rx="1.2499995" style="opacity:.41764706;fill:none;stroke-width:.99999994;display:block;overflow:visible;stroke:url(#e)" transform="scale(1 -1)" width="27.729544" x="10.635226" y="-39.289101"/><path d="m16.722015 12.506832l15.632463 0c .972272.044194 1.026805-1.889084 1.026805-1.889084l-2.88421-2.3104767.009089-3.7545238c0-.8226142-.691802-1.9332784-1.698805-1.9332784l-8.520043-.0883883c-1.212428 0-1.796282 1.1881512-1.796282 2.0011169l0 3.8902012-2.600867 2.2426371c0 0-.052033 1.797602.83185 1.841796z" display="block" fill="url(#a)" overflow="visible" stroke="#555753"/><rect display="block" fill="#fff" height="1.0416322" opacity=".46470588" overflow="visible" rx=".52081609" width="15" x="17" y="10"/><rect display="block" fill="#fff" filter="url(#b)" height="1.0416322" opacity=".53529412" overflow="visible" rx=".52081609" width="9" x="20" y="4"/><g transform="translate(-64 1.3466)"><g transform="matrix(.545455 0 0 .545455 106.459 17.1351)"><rect fill="url(#g)" fill-rule="evenodd" height="38.499989" overflow="visible" rx="2.6242812" ry="2.6242814" stroke="#939393" stroke-width="1.8333329" width="38.499989" x="-36.591621" y="5.4189425"/><rect fill="none" height="34.833324" overflow="visible" rx="1.0501657" ry="1.0501654" stroke="#fff" stroke-width="1.8333317" width="34.833324" x="-34.758289" y="7.252274"/></g><path d="m89.000008 23.590904h16v2.0625005h-16z" fill="#adaeab" fill-rule="evenodd" overflow="visible"/><path d="m89.000008 27.590904h16v2.0625005h-16z" fill="#adaeab" fill-rule="evenodd" overflow="visible"/><path d="m89.000008 31.64636h16v2.0070443h-16z" fill="#adaeab" fill-rule="evenodd" overflow="visible"/><path d="m89.000008 35.590904h9.000001v2.0625005h-9.000001z" fill="#adaeab" fill-rule="evenodd" overflow="visible"/></g></svg>